<svg width="20" height="18" viewBox="0 0 20 18" fill="none" xmlns="http://www.w3.org/2000/svg">
<path d="M19.2968 6.76058C19.2072 6.48245 19.0423 6.23455 18.8205 6.04432C18.5987 5.85409 18.3285 5.72896 18.04 5.68277L13.5123 4.94695L11.4134 0.868273C11.2797 0.608618 11.0771 0.390807 10.8277 0.23874C10.5784 0.0866728 10.292 0.00622559 9.99993 0.00622559C9.70787 0.00622559 9.42146 0.0866728 9.17212 0.23874C8.92278 0.390807 8.72015 0.608618 8.58645 0.868273L6.48755 4.94695L1.95993 5.68277C1.67167 5.72968 1.40191 5.85509 1.18024 6.04523C0.95857 6.23538 0.793556 6.4829 0.703306 6.76066C0.613055 7.03841 0.601055 7.33566 0.668622 7.61978C0.736189 7.9039 0.880712 8.16393 1.08633 8.37132L4.3168 11.6279L3.61758 16.1613C3.57272 16.45 3.60835 16.7456 3.72057 17.0154C3.83279 17.2852 4.01724 17.5188 4.25364 17.6905C4.49005 17.8623 4.76924 17.9655 5.06052 17.9889C5.35179 18.0122 5.64387 17.9548 5.90462 17.8229L9.99993 15.7569L14.0954 17.8229C14.3561 17.9545 14.6481 18.0118 14.9393 17.9883C15.2305 17.9648 15.5095 17.8616 15.7458 17.6899C15.9822 17.5182 16.1666 17.2847 16.2789 17.015C16.3912 16.7454 16.427 16.45 16.3824 16.1613L15.6832 11.6279L18.9136 8.37132C19.1199 8.16433 19.2649 7.9043 19.3325 7.62002C19.4001 7.33573 19.3878 7.03828 19.2968 6.76058ZM18.0261 7.49105L14.3515 11.1953L15.147 16.3519C15.1568 16.4137 15.1494 16.477 15.1255 16.5348C15.1016 16.5926 15.0622 16.6426 15.0116 16.6794C14.961 16.7161 14.9012 16.7382 14.8388 16.743C14.7765 16.7479 14.714 16.7354 14.6583 16.7069L9.99993 14.3569L5.34149 16.707C5.2858 16.7355 5.22333 16.748 5.16098 16.7431C5.09863 16.7382 5.03884 16.7162 4.98825 16.6795C4.93765 16.6427 4.89822 16.5926 4.87432 16.5349C4.85043 16.4771 4.843 16.4138 4.85286 16.352L5.64837 11.1953L1.9738 7.49101C1.92991 7.44667 1.89908 7.39112 1.88467 7.33043C1.87027 7.26974 1.87284 7.20625 1.89212 7.14692C1.91139 7.0876 1.94662 7.03472 1.99395 6.99409C2.04128 6.95345 2.09888 6.92663 2.16044 6.91655L7.31047 6.0796L9.69794 1.44027C9.72648 1.38477 9.76977 1.33822 9.82305 1.30571C9.87632 1.27321 9.93752 1.25601 9.99993 1.25601C10.0623 1.25601 10.1235 1.27321 10.1768 1.30571C10.2301 1.33822 10.2734 1.38477 10.3019 1.44027L12.6894 6.0796L17.8394 6.91655C17.901 6.92663 17.9586 6.95345 18.0059 6.99409C18.0532 7.03472 18.0885 7.0876 18.1077 7.14692C18.127 7.20625 18.1296 7.26974 18.1152 7.33043C18.1008 7.39112 18.0699 7.44667 18.0261 7.49101L18.0261 7.49105Z" fill="white"/>
</svg>
