<svg width="25" height="25" viewBox="0 0 25 25" fill="none" xmlns="http://www.w3.org/2000/svg">
<path d="M16.23 12.48C16.23 13.4745 15.8349 14.4284 15.1316 15.1316C14.4284 15.8349 13.4745 16.23 12.48 16.23C11.4854 16.23 10.5316 15.8349 9.82833 15.1316C9.12507 14.4284 8.72998 13.4745 8.72998 12.48C8.72998 12.2662 8.75248 12.0575 8.79123 11.855H7.47998V16.8512C7.47998 17.1987 7.76123 17.48 8.10873 17.48H16.8525C17.019 17.4797 17.1786 17.4133 17.2963 17.2954C17.4139 17.1775 17.48 17.0178 17.48 16.8512V11.855H16.1687C16.2075 12.0575 16.23 12.2662 16.23 12.48ZM12.48 14.98C12.8084 14.9799 13.1335 14.9151 13.4369 14.7894C13.7402 14.6637 14.0159 14.4794 14.248 14.2471C14.4802 14.0149 14.6643 13.7391 14.7899 13.4357C14.9155 13.1323 14.9801 12.8071 14.98 12.4787C14.9799 12.1503 14.9151 11.8252 14.7894 11.5218C14.6636 11.2185 14.4794 10.9429 14.2471 10.7107C14.0149 10.4786 13.7391 10.2944 13.4357 10.1688C13.1323 10.0432 12.8071 9.97865 12.4787 9.97873C11.8155 9.9789 11.1795 10.2425 10.7107 10.7116C10.2419 11.1807 9.97856 11.8168 9.97873 12.48C9.9789 13.1432 10.2425 13.7792 10.7116 14.248C11.1807 14.7168 11.8168 14.9801 12.48 14.98ZM15.48 9.85498H16.9787C17.0783 9.85498 17.1738 9.81551 17.2443 9.74522C17.3149 9.67493 17.3547 9.57955 17.355 9.47998V7.98123C17.355 7.88144 17.3153 7.78574 17.2448 7.71518C17.1742 7.64462 17.0785 7.60498 16.9787 7.60498H15.48C15.3802 7.60498 15.2845 7.64462 15.2139 7.71518C15.1434 7.78574 15.1037 7.88144 15.1037 7.98123V9.47998C15.105 9.68623 15.2737 9.85498 15.48 9.85498ZM12.48 0.47998C9.29738 0.47998 6.24514 1.74426 3.9947 3.9947C1.74426 6.24514 0.47998 9.29738 0.47998 12.48C0.47998 15.6626 1.74426 18.7148 3.9947 20.9653C6.24514 23.2157 9.29738 24.48 12.48 24.48C14.0558 24.48 15.6163 24.1696 17.0722 23.5665C18.5281 22.9635 19.851 22.0796 20.9653 20.9653C22.0796 19.851 22.9635 18.5281 23.5665 17.0722C24.1696 15.6163 24.48 14.0558 24.48 12.48C24.48 10.9041 24.1696 9.34369 23.5665 7.88778C22.9635 6.43187 22.0796 5.109 20.9653 3.9947C19.851 2.8804 18.5281 1.99648 17.0722 1.39343C15.6163 0.79037 14.0558 0.47998 12.48 0.47998ZM18.73 17.3412C18.73 18.105 18.105 18.73 17.3412 18.73H7.61873C6.85498 18.73 6.22998 18.105 6.22998 17.3412V7.61873C6.22998 6.85498 6.85498 6.22998 7.61873 6.22998H17.3412C18.105 6.22998 18.73 6.85498 18.73 7.61873V17.3412Z" fill="black"/>
</svg>
